<svg width="44" height="29" viewBox="0 0 44 29" fill="none" xmlns="http://www.w3.org/2000/svg">
<path fill-rule="evenodd" clip-rule="evenodd" d="M43.4473 13.1034L39.6436 11.201L31.7813 1.37292C31.5909 1.13624 31.3037 0.998388 31 0.997925H1C0.447715 0.997925 0 1.44564 0 1.99792V23.9979C0 24.5502 0.447715 24.9979 1 24.9979H6.1012C6.57674 27.3254 8.62438 28.997 11 28.997C13.3756 28.997 15.4233 27.3254 15.8988 24.9979H28.1012C28.5767 27.3254 30.6244 28.997 33 28.997C35.3756 28.997 37.4233 27.3254 37.8988 24.9979H43C43.5523 24.9979 44 24.5502 44 23.9979V13.9979C44 13.6191 43.7861 13.2728 43.4473 13.1034ZM36.9188 10.9979H28V2.99792H30.52L36.9188 10.9979ZM8 23.9979C8 25.6548 9.34315 26.9979 11 26.9979C12.6561 26.9961 13.9982 25.654 14 23.9979C14 22.341 12.6569 20.9979 11 20.9979C9.34315 20.9979 8 22.341 8 23.9979ZM33 26.9979C31.3431 26.9979 30 25.6548 30 23.9979C30 22.341 31.3431 20.9979 33 20.9979C34.6569 20.9979 36 22.341 36 23.9979C35.9982 25.654 34.6561 26.9961 33 26.9979ZM37.8988 22.9979H42V14.6151L38.7638 12.9979H27C26.4477 12.9979 26 12.5502 26 11.9979V2.99792H2V22.9979H6.1012C6.57674 20.6704 8.62438 18.9988 11 18.9988C13.3756 18.9988 15.4233 20.6704 15.8988 22.9979H28.1012C28.5767 20.6704 30.6244 18.9988 33 18.9988C35.3756 18.9988 37.4233 20.6704 37.8988 22.9979Z" fill="#3389BA"/>
</svg>
