<svg width="24" height="25" viewBox="0 0 24 25" fill="none" xmlns="http://www.w3.org/2000/svg">
<path d="M12 14.0078C13.1046 14.0078 14 13.1124 14 12.0078C14 10.9032 13.1046 10.0078 12 10.0078C10.8954 10.0078 10 10.9032 10 12.0078C10 13.1124 10.8954 14.0078 12 14.0078Z" fill="black" fill-opacity="0.38"/>
<path fill-rule="evenodd" clip-rule="evenodd" d="M15.78 3.00781H8.22C6.83557 3.00781 5.50784 3.55778 4.5289 4.53672C3.54996 5.51566 3 6.84338 3 8.22781V15.7878C3 18.6678 5.34 21.0078 8.22 21.0078H15.78C17.1644 21.0078 18.4922 20.4578 19.4711 19.4789C20.45 18.5 21 17.1722 21 15.7878V8.22781C21 5.34781 18.66 3.00781 15.78 3.00781ZM18 7.00781C18 7.5601 17.5523 8.00781 17 8.00781C16.4477 8.00781 16 7.5601 16 7.00781C16 6.45553 16.4477 6.00781 17 6.00781C17.5523 6.00781 18 6.45553 18 7.00781ZM12 16.0078C14.2091 16.0078 16 14.217 16 12.0078C16 9.79867 14.2091 8.00781 12 8.00781C9.79086 8.00781 8 9.79867 8 12.0078C8 14.217 9.79086 16.0078 12 16.0078Z" fill="black" fill-opacity="0.38"/>
</svg>
