<svg width="24" height="24" viewBox="0 0 24 24" fill="none" xmlns="http://www.w3.org/2000/svg">
<path fill-rule="evenodd" clip-rule="evenodd" d="M15 10.5005C15 12.9858 12.9853 15.0005 10.5 15.0005C8.01472 15.0005 6 12.9858 6 10.5005C6 8.01522 8.01472 6.0005 10.5 6.0005C12.9853 6.0005 15 8.01522 15 10.5005ZM14.3347 15.7494C13.2597 16.5361 11.9341 17.0005 10.5 17.0005C6.91015 17.0005 4 14.0904 4 10.5005C4 6.91065 6.91015 4.0005 10.5 4.0005C14.0899 4.0005 17 6.91065 17 10.5005C17 11.9346 16.5356 13.2602 15.7489 14.3352L19.2071 17.7934C19.5976 18.1839 19.5976 18.8171 19.2071 19.2076C18.8166 19.5981 18.1834 19.5981 17.7929 19.2076L14.3347 15.7494Z" fill="black" fill-opacity="0.38"/>
</svg>
