<svg width="36" height="39" viewBox="0 0 36 39" fill="none" xmlns="http://www.w3.org/2000/svg">
<path fill-rule="evenodd" clip-rule="evenodd" d="M19 8.99784C19 9.55013 18.5523 9.99784 18 9.99784C17.4477 9.99784 17 9.55013 17 8.99784V2.99784C17 2.44555 17.4477 1.99784 18 1.99784H25.5859L25.293 1.70484C24.914 1.31246 24.9194 0.688759 25.3052 0.303025C25.6909 -0.0827084 26.3146 -0.0881283 26.707 0.290844L28.707 2.29084C28.8946 2.47829 29 2.73263 29 2.99784C29 3.26305 28.8946 3.51739 28.707 3.70484L26.707 5.70484C26.4559 5.96481 26.0841 6.06905 25.7345 5.97754C25.3849 5.88602 25.1118 5.61298 25.0203 5.26335C24.9288 4.91372 25.033 4.54191 25.293 4.29084L25.5859 3.99784H19V8.99784ZM35.8319 15.4431C35.9364 15.6033 35.992 15.7905 35.9919 15.9817L36 15.9978V37.9978C36 38.5501 35.5523 38.9978 35 38.9978H1C0.447715 38.9978 0 38.5501 0 37.9978V15.9978L0.008 15.981C0.00828274 15.7901 0.0638531 15.6032 0.168 15.4431L4.168 9.44316C4.35346 9.16498 4.66566 8.99788 5 8.99786H9C9.55229 8.99786 10 9.44557 10 9.99786C10 10.5501 9.55229 10.9978 9 10.9978H5.5352L2.8682 14.9978H33.1309L30.4648 10.9978H27C26.4477 10.9978 26 10.5501 26 9.99786C26 9.44557 26.4477 8.99786 27 8.99786H31C31.3343 8.99791 31.6465 9.165 31.8319 9.44316L35.8319 15.4431ZM2 16.9978V36.9978H34V16.9978H2ZM27 32.9978H29C29.5523 32.9978 30 32.5501 30 31.9978C30 31.4456 29.5523 30.9978 29 30.9978H27C26.4477 30.9978 26 31.4456 26 31.9978C26 32.5501 26.4477 32.9978 27 32.9978Z" fill="#3389BA"/>
</svg>
