<svg width="117" height="22" viewBox="0 0 117 22" fill="none" xmlns="http://www.w3.org/2000/svg">
<path d="M0.0427814 0.200502H3.93078V13.8325H12.3548V17.0005H0.0427814V0.200502ZM20.3134 17.1925C18.9534 17.1925 17.7294 16.9125 16.6414 16.3525C15.5694 15.7765 14.7294 14.9845 14.1214 13.9765C13.5134 12.9685 13.2094 11.8245 13.2094 10.5445C13.2094 9.2645 13.5134 8.1205 14.1214 7.1125C14.7294 6.1045 15.5694 5.3205 16.6414 4.7605C17.7294 4.1845 18.9534 3.8965 20.3134 3.8965C21.6734 3.8965 22.8894 4.1845 23.9614 4.7605C25.0334 5.3205 25.8734 6.1045 26.4814 7.1125C27.0894 8.1205 27.3934 9.2645 27.3934 10.5445C27.3934 11.8245 27.0894 12.9685 26.4814 13.9765C25.8734 14.9845 25.0334 15.7765 23.9614 16.3525C22.8894 16.9125 21.6734 17.1925 20.3134 17.1925ZM20.3134 14.1205C21.2734 14.1205 22.0574 13.8005 22.6654 13.1605C23.2894 12.5045 23.6014 11.6325 23.6014 10.5445C23.6014 9.4565 23.2894 8.5925 22.6654 7.9525C22.0574 7.2965 21.2734 6.9685 20.3134 6.9685C19.3534 6.9685 18.5614 7.2965 17.9374 7.9525C17.3134 8.5925 17.0014 9.4565 17.0014 10.5445C17.0014 11.6325 17.3134 12.5045 17.9374 13.1605C18.5614 13.8005 19.3534 14.1205 20.3134 14.1205ZM43.216 4.0885V14.8405C43.216 17.2085 42.6 18.9685 41.368 20.1205C40.136 21.2725 38.336 21.8485 35.968 21.8485C34.72 21.8485 33.536 21.6965 32.416 21.3925C31.296 21.0885 30.368 20.6485 29.632 20.0725L31.12 17.3845C31.664 17.8325 32.352 18.1845 33.184 18.4405C34.016 18.7125 34.848 18.8485 35.68 18.8485C36.976 18.8485 37.928 18.5525 38.536 17.9605C39.16 17.3845 39.472 16.5045 39.472 15.3205V14.7685C38.496 15.8405 37.136 16.3765 35.392 16.3765C34.208 16.3765 33.12 16.1205 32.128 15.6085C31.152 15.0805 30.376 14.3445 29.8 13.4005C29.224 12.4565 28.936 11.3685 28.936 10.1365C28.936 8.9045 29.224 7.8165 29.8 6.8725C30.376 5.9285 31.152 5.2005 32.128 4.6885C33.12 4.1605 34.208 3.8965 35.392 3.8965C37.264 3.8965 38.688 4.5125 39.664 5.7445V4.0885H43.216ZM36.136 13.3045C37.128 13.3045 37.936 13.0165 38.56 12.4405C39.2 11.8485 39.52 11.0805 39.52 10.1365C39.52 9.1925 39.2 8.4325 38.56 7.8565C37.936 7.2645 37.128 6.9685 36.136 6.9685C35.144 6.9685 34.328 7.2645 33.688 7.8565C33.048 8.4325 32.728 9.1925 32.728 10.1365C32.728 11.0805 33.048 11.8485 33.688 12.4405C34.328 13.0165 35.144 13.3045 36.136 13.3045ZM52.8447 17.1925C51.4847 17.1925 50.2607 16.9125 49.1727 16.3525C48.1007 15.7765 47.2607 14.9845 46.6527 13.9765C46.0447 12.9685 45.7407 11.8245 45.7407 10.5445C45.7407 9.2645 46.0447 8.1205 46.6527 7.1125C47.2607 6.1045 48.1007 5.3205 49.1727 4.7605C50.2607 4.1845 51.4847 3.8965 52.8447 3.8965C54.2047 3.8965 55.4207 4.1845 56.4927 4.7605C57.5647 5.3205 58.4047 6.1045 59.0127 7.1125C59.6207 8.1205 59.9247 9.2645 59.9247 10.5445C59.9247 11.8245 59.6207 12.9685 59.0127 13.9765C58.4047 14.9845 57.5647 15.7765 56.4927 16.3525C55.4207 16.9125 54.2047 17.1925 52.8447 17.1925ZM52.8447 14.1205C53.8047 14.1205 54.5887 13.8005 55.1967 13.1605C55.8207 12.5045 56.1327 11.6325 56.1327 10.5445C56.1327 9.4565 55.8207 8.5925 55.1967 7.9525C54.5887 7.2965 53.8047 6.9685 52.8447 6.9685C51.8847 6.9685 51.0927 7.2965 50.4687 7.9525C49.8447 8.5925 49.5327 9.4565 49.5327 10.5445C49.5327 11.6325 49.8447 12.5045 50.4687 13.1605C51.0927 13.8005 51.8847 14.1205 52.8447 14.1205ZM70.7552 16.3765C70.3872 16.6485 69.9312 16.8565 69.3872 17.0005C68.8592 17.1285 68.2992 17.1925 67.7072 17.1925C66.1712 17.1925 64.9792 16.8005 64.1312 16.0165C63.2992 15.2325 62.8832 14.0805 62.8832 12.5605V7.2565H60.8912V4.3765H62.8832V1.2325H66.6272V4.3765H69.8432V7.2565H66.6272V12.5125C66.6272 13.0565 66.7632 13.4805 67.0352 13.7845C67.3232 14.0725 67.7232 14.2165 68.2352 14.2165C68.8272 14.2165 69.3312 14.0565 69.7472 13.7365L70.7552 16.3765ZM85.4385 4.0885L79.6065 17.7925C79.0145 19.2805 78.2785 20.3285 77.3985 20.9365C76.5345 21.5445 75.4865 21.8485 74.2545 21.8485C73.5825 21.8485 72.9185 21.7445 72.2625 21.5365C71.6065 21.3285 71.0705 21.0405 70.6545 20.6725L72.0225 18.0085C72.3105 18.2645 72.6385 18.4645 73.0065 18.6085C73.3905 18.7525 73.7665 18.8245 74.1345 18.8245C74.6465 18.8245 75.0625 18.6965 75.3825 18.4405C75.7025 18.2005 75.9905 17.7925 76.2465 17.2165L76.2945 17.0965L70.7025 4.0885H74.5665L78.1905 12.8485L81.8385 4.0885H85.4385ZM94.5983 3.8965C95.7983 3.8965 96.8863 4.1765 97.8623 4.7365C98.8543 5.2805 99.6303 6.0565 100.19 7.0645C100.75 8.0565 101.03 9.2165 101.03 10.5445C101.03 11.8725 100.75 13.0405 100.19 14.0485C99.6303 15.0405 98.8543 15.8165 97.8623 16.3765C96.8863 16.9205 95.7983 17.1925 94.5983 17.1925C92.9503 17.1925 91.6543 16.6725 90.7103 15.6325V21.6565H86.9663V4.0885H90.5423V5.5765C91.4703 4.4565 92.8223 3.8965 94.5983 3.8965ZM93.9503 14.1205C94.9103 14.1205 95.6943 13.8005 96.3023 13.1605C96.9263 12.5045 97.2383 11.6325 97.2383 10.5445C97.2383 9.4565 96.9263 8.5925 96.3023 7.9525C95.6943 7.2965 94.9103 6.9685 93.9503 6.9685C92.9903 6.9685 92.1983 7.2965 91.5743 7.9525C90.9663 8.5925 90.6623 9.4565 90.6623 10.5445C90.6623 11.6325 90.9663 12.5045 91.5743 13.1605C92.1983 13.8005 92.9903 14.1205 93.9503 14.1205ZM116.185 10.5925C116.185 10.6405 116.161 10.9765 116.113 11.6005H106.345C106.521 12.4005 106.937 13.0325 107.593 13.4965C108.249 13.9605 109.065 14.1925 110.041 14.1925C110.713 14.1925 111.305 14.0965 111.817 13.9045C112.345 13.6965 112.833 13.3765 113.281 12.9445L115.273 15.1045C114.057 16.4965 112.281 17.1925 109.945 17.1925C108.489 17.1925 107.201 16.9125 106.081 16.3525C104.961 15.7765 104.097 14.9845 103.489 13.9765C102.881 12.9685 102.577 11.8245 102.577 10.5445C102.577 9.2805 102.873 8.1445 103.465 7.1365C104.073 6.1125 104.897 5.3205 105.937 4.7605C106.993 4.1845 108.169 3.8965 109.465 3.8965C110.729 3.8965 111.873 4.1685 112.897 4.7125C113.921 5.2565 114.721 6.0405 115.297 7.0645C115.889 8.0725 116.185 9.2485 116.185 10.5925ZM109.489 6.7285C108.641 6.7285 107.929 6.9685 107.353 7.4485C106.777 7.9285 106.425 8.5845 106.297 9.4165H112.657C112.529 8.6005 112.177 7.9525 111.601 7.4725C111.025 6.9765 110.321 6.7285 109.489 6.7285Z" fill="#3389BA"/>
</svg>
