<svg width="40" height="41" viewBox="0 0 40 41" fill="none" xmlns="http://www.w3.org/2000/svg">
<path fill-rule="evenodd" clip-rule="evenodd" d="M29 15.9979V5.99794C29 5.61916 28.7861 5.27287 28.4473 5.10344L20.4473 1.10345C20.1657 0.962751 19.8343 0.962751 19.5527 1.10345L11.5527 5.10344C11.2139 5.27287 11 5.61916 11 5.99794V15.9979C11 16.3767 11.2139 16.723 11.5527 16.8924L19.5527 20.8924C19.8343 21.0331 20.1657 21.0331 20.4473 20.8924L28.4473 16.8924C28.7861 16.723 29 16.3767 29 15.9979ZM19 18.3797L13 15.3797V7.61614L19 10.6161V18.3797ZM14.2363 5.99794L20 8.87975L25.7637 5.99794L20 3.11614L14.2363 5.99794ZM27 15.3797L21 18.3797V10.6161L27 7.61614V15.3797ZM9.4473 21.1034L17.4473 25.1035C17.7861 25.2729 18 25.6192 18 25.998V35.998C18 36.3768 17.7861 36.7231 17.4473 36.8925L9.4473 40.8924C9.16569 41.0331 8.83431 41.0331 8.5527 40.8924L0.5527 36.8925C0.213926 36.7231 -4.3923e-05 36.3768 6.76307e-09 35.998V25.998C-4.3923e-05 25.6192 0.213926 25.2729 0.5527 25.1035L8.5527 21.1034C8.8343 20.9627 9.1657 20.9627 9.4473 21.1034ZM2 35.3798L8 38.3798V30.6161L2 27.6161V35.3798ZM9 28.8797L3.2363 25.998L9 23.1161L14.7637 25.998L9 28.8797ZM10 30.6161V38.3798L16 35.3798V27.6161L10 30.6161ZM31.4473 21.1034L39.4473 25.1035C39.7861 25.2729 40 25.6192 40 25.998V35.998C40 36.3768 39.7861 36.7231 39.4473 36.8925L31.4473 40.8924C31.1657 41.0331 30.8343 41.0331 30.5527 40.8924L22.5527 36.8925C22.2139 36.7231 22 36.3768 22 35.998V25.998C22 25.6192 22.2139 25.2729 22.5527 25.1035L30.5527 21.1034C30.8343 20.9627 31.1657 20.9627 31.4473 21.1034ZM24 27.6161V35.3798L30 38.3798V30.6161L24 27.6161ZM31 28.8797L25.2363 25.998L31 23.1161L36.7637 25.998L31 28.8797ZM32 38.3798L38 35.3798V27.6161L32 30.6161V38.3798Z" fill="#3389BA"/>
</svg>
