<svg width="24" height="25" viewBox="0 0 24 25" fill="none" xmlns="http://www.w3.org/2000/svg">
<path d="M23.4511 6.38236C23.6196 5.88599 23.4512 5.50781 22.6479 5.50781H20.0307C19.3569 5.50781 19.0589 5.8269 18.8905 6.18145C18.8905 6.18145 17.556 9.14781 15.6643 11.086C15.0424 11.6414 14.7703 11.8187 14.4335 11.8187C14.265 11.8187 13.993 11.6414 13.993 11.1333V6.38236C13.993 5.77963 13.8375 5.50781 13.2803 5.50781H9.14725C8.73264 5.50781 8.48647 5.79145 8.48647 6.06327C8.48647 6.63054 9.4582 6.77236 9.52298 8.39145V11.9133C9.52298 12.6933 9.3675 12.8351 9.04359 12.8351C8.16256 12.8351 5.98587 9.84509 4.70319 6.44145C4.44406 5.77963 4.19789 5.50781 3.52415 5.50781H0.893994C0.155477 5.50781 0 5.8269 0 6.18145C0 6.81963 0.893994 9.96327 4.14606 14.1233C6.30978 16.9714 9.3675 18.5078 12.1531 18.5078C13.8245 18.5078 14.0318 18.1651 14.0318 17.5742V15.4233C14.0318 14.7496 14.1873 14.6078 14.7185 14.6078C15.1072 14.6078 15.768 14.7851 17.3228 16.1442C19.1107 17.7751 19.3958 18.5078 20.4064 18.5078H23.0236C23.7751 18.5078 24.1508 18.1651 23.9435 17.4914C23.7103 16.8178 22.8552 15.8369 21.7279 14.6787C21.119 14.0287 20.1991 13.3196 19.914 12.9533C19.5254 12.5042 19.642 12.3033 19.914 11.8896C19.914 11.8896 23.1143 7.78872 23.4511 6.38236Z" fill="black" fill-opacity="0.38"/>
</svg>
