<svg width="36" height="39" viewBox="0 0 36 39" fill="none" xmlns="http://www.w3.org/2000/svg">
<path fill-rule="evenodd" clip-rule="evenodd" d="M35.4258 9.0946L18.4258 1.0946C18.1566 0.965698 17.8434 0.965698 17.5742 1.0946L0.5742 9.0946C0.223692 9.25925 -7.01273e-05 9.61166 1.64864e-08 9.99891C1.64864e-08 32.3016 16.2471 38.9989 18 38.9989C19.7529 38.9989 36 32.3016 36 9.99891C36.0001 9.61166 35.7763 9.25925 35.4258 9.0946ZM18.0742 37.0028C17.915 36.9794 2.3076 32.0028 2.0049 10.6317L18 3.1044L33.9951 10.6317C33.7011 31.3845 18.9771 36.6777 18.1137 36.9881L18.1136 36.9881C18.101 36.9926 18.0914 36.9961 18.0848 36.9985C18.078 37.001 18.0744 37.0025 18.0742 37.0028ZM12.2929 19.3031C12.6786 18.9174 13.3023 18.912 13.6947 19.291L16.9392 22.5351L23.2351 15.3398C23.5986 14.9239 24.2304 14.8815 24.6462 15.2451C25.062 15.6086 25.1044 16.2403 24.7409 16.6562L17.7409 24.6562C17.5585 24.8647 17.2978 24.9884 17.0209 24.998H16.9877C16.7225 24.9978 16.4683 24.8924 16.2807 24.705L12.2807 20.705C11.9017 20.3126 11.9072 19.6889 12.2929 19.3031Z" fill="#3389BA"/>
</svg>
