<svg width="40" height="25" viewBox="0 0 40 25" fill="none" xmlns="http://www.w3.org/2000/svg">
<path fill-rule="evenodd" clip-rule="evenodd" d="M25.7376 6.00781C26.9223 6.00781 27.8804 6.25804 28.4844 6.48466L28.0679 8.90329L27.7909 8.78436C27.2368 8.55789 26.5053 8.33158 25.5096 8.35549C24.3005 8.35549 23.7582 8.84375 23.7457 9.32044C23.7457 9.8448 24.4016 10.1904 25.4728 10.7029C27.2373 11.5012 28.0557 12.4782 28.0435 13.7532C28.0187 16.0768 25.9266 17.5783 22.7132 17.5783C21.3393 17.5663 20.0159 17.2917 19.2976 16.9822L19.7262 14.4679L20.1294 14.6469C21.1251 15.0644 21.7802 15.2427 23.0029 15.2427C23.8847 15.2427 24.83 14.8968 24.8421 14.1465C24.8421 13.6579 24.4393 13.3001 23.2545 12.752C22.0952 12.2156 20.5453 11.3221 20.5704 9.71336C20.5835 7.53292 22.7132 6.00781 25.7376 6.00781ZM14.3201 17.4115H17.3826L19.298 6.21094H16.2356L14.3201 17.4115ZM33.9664 6.21094H36.3353L38.806 17.4113H35.9703C35.9703 17.4113 35.6928 16.1244 35.6049 15.7312H31.6729C31.5591 16.0289 31.0301 17.4113 31.0301 17.4113H27.8167L32.3657 7.14025C32.6809 6.41333 33.2359 6.21094 33.9664 6.21094ZM33.7777 10.3098C33.7777 10.3098 32.8072 12.8001 32.555 13.4436H35.1006C34.9746 12.8836 34.3947 10.2025 34.3947 10.2025L34.1807 9.23743C34.0907 9.48554 33.9606 9.82649 33.8727 10.0569L33.8724 10.0578L33.8723 10.0581L33.8719 10.0592L33.8714 10.0602C33.8123 10.2153 33.7726 10.3194 33.7777 10.3098ZM5.97776 6.21094H1.05041L1 6.43725C2.20179 6.72787 3.27668 7.14665 4.2185 7.66735L6.94815 17.3996H10.1867L15.0005 6.21094H11.7621L8.76287 13.8487L8.43513 12.2996L8.43467 12.2982L7.36393 7.15245C7.18758 6.43709 6.64564 6.23453 5.97776 6.21094Z" fill="black" fill-opacity="0.88"/>
</svg>
