<svg width="25" height="25" viewBox="0 0 25 25" fill="none" xmlns="http://www.w3.org/2000/svg">
<path fill-rule="evenodd" clip-rule="evenodd" d="M0.0078125 4.00696C0.0078125 3.45467 0.455528 3.00696 1.00781 3.00696H4.00781H4.78859L4.97795 3.76442L7.59922 14.2495C7.71051 14.6947 8.1105 15.007 8.56937 15.007H17.4035C17.8722 15.007 18.278 14.6814 18.3797 14.2239L20.0316 6.79003C20.1514 6.25089 20.6856 5.91096 21.2247 6.03077C21.7639 6.15058 22.1038 6.68476 21.984 7.22389L20.332 14.6577C20.027 16.0304 18.8096 17.007 17.4035 17.007H8.56937C7.19276 17.007 5.99281 16.0701 5.65894 14.7346L3.22704 5.00696H1.00781C0.455528 5.00696 0.0078125 4.55924 0.0078125 4.00696ZM10.0078 20.507C10.0078 21.3354 9.33624 22.007 8.50781 22.007C7.67939 22.007 7.00781 21.3354 7.00781 20.507C7.00781 19.6785 7.67939 19.007 8.50781 19.007C9.33624 19.007 10.0078 19.6785 10.0078 20.507ZM18.0078 20.507C18.0078 21.3354 17.3362 22.007 16.5078 22.007C15.6794 22.007 15.0078 21.3354 15.0078 20.507C15.0078 19.6785 15.6794 19.007 16.5078 19.007C17.3362 19.007 18.0078 19.6785 18.0078 20.507ZM13.0078 4.00696C13.5601 4.00696 14.0078 4.45467 14.0078 5.00696V7.00696H16.0078C16.5601 7.00696 17.0078 7.45467 17.0078 8.00696C17.0078 8.55924 16.5601 9.00696 16.0078 9.00696H14.0078V11.007C14.0078 11.5592 13.5601 12.007 13.0078 12.007C12.4555 12.007 12.0078 11.5592 12.0078 11.007V9.00696H10.0078C9.45553 9.00696 9.00781 8.55924 9.00781 8.00696C9.00781 7.45467 9.45553 7.00696 10.0078 7.00696H12.0078V5.00696C12.0078 4.45467 12.4555 4.00696 13.0078 4.00696Z" fill="white"/>
</svg>
