<svg width="24" height="25" viewBox="0 0 24 25" fill="none" xmlns="http://www.w3.org/2000/svg">
<path d="M16.5 3.00299C19.538 3.00299 22 5.50299 22 9.00299C22 16.003 14.5 20.003 12 21.503C9.5 20.003 2 16.003 2 9.00299C2 5.50299 4.5 3.00299 7.5 3.00299C9.36 3.00299 11 4.00299 12 5.00299C13 4.00299 14.64 3.00299 16.5 3.00299ZM12.934 18.607C13.815 18.051 14.61 17.498 15.354 16.906C18.335 14.536 20 11.946 20 9.00299C20 6.64299 18.463 5.00299 16.5 5.00299C15.424 5.00299 14.26 5.57299 13.414 6.41699L12 7.83099L10.586 6.41699C9.74 5.57299 8.576 5.00299 7.5 5.00299C5.56 5.00299 4 6.65899 4 9.00299C4 11.947 5.666 14.536 8.645 16.906C9.39 17.498 10.185 18.051 11.066 18.606C11.365 18.795 11.661 18.976 12 19.178C12.339 18.976 12.635 18.795 12.934 18.607Z" fill="black" fill-opacity="0.22"/>
</svg>
