<svg width="40" height="25" viewBox="0 0 40 25" fill="none" xmlns="http://www.w3.org/2000/svg">
<path fill-rule="evenodd" clip-rule="evenodd" d="M14.1285 20.9201V22.1016V23.2831H13.6151V22.9962C13.4523 23.209 13.2052 23.3425 12.8694 23.3425C12.2073 23.3425 11.6883 22.8236 11.6883 22.1016C11.6883 21.3802 12.2073 20.8607 12.8694 20.8607C13.2052 20.8607 13.4523 20.9943 13.6151 21.207V20.9201H14.1285ZM12.9333 21.3451C12.4889 21.3451 12.2169 21.6863 12.2169 22.1016C12.2169 22.517 12.4889 22.8582 12.9333 22.8582C13.3579 22.8582 13.6445 22.5317 13.6445 22.1016C13.6445 21.6716 13.3579 21.3451 12.9333 21.3451ZM31.4767 22.1016C31.4767 21.6863 31.7487 21.3451 32.1931 21.3451C32.6182 21.3451 32.9043 21.6716 32.9043 22.1016C32.9043 22.5317 32.6182 22.8582 32.1931 22.8582C31.7487 22.8582 31.4767 22.517 31.4767 22.1016ZM33.3889 19.9712V22.1016V23.2831H32.8749V22.9962C32.7121 23.209 32.465 23.3425 32.1292 23.3425C31.4671 23.3425 30.9481 22.8236 30.9481 22.1016C30.9481 21.3802 31.4671 20.8607 32.1292 20.8607C32.465 20.8607 32.7121 20.9943 32.8749 21.207V19.9712H33.3889ZM20.501 21.3207C20.8317 21.3207 21.0443 21.5284 21.0986 21.8939H19.8734C19.9283 21.5527 20.1352 21.3207 20.501 21.3207ZM19.3352 22.1016C19.3352 21.3649 19.8191 20.8607 20.5112 20.8607C21.1727 20.8607 21.6272 21.3649 21.6323 22.1016C21.6323 22.1707 21.6272 22.2352 21.6221 22.2991H19.8689C19.943 22.7246 20.2443 22.878 20.5751 22.878C20.8119 22.878 21.0641 22.7886 21.262 22.6307L21.5136 23.0115C21.2269 23.2537 20.9013 23.3425 20.5457 23.3425C19.8389 23.3425 19.3352 22.8531 19.3352 22.1016ZM26.71 22.1016C26.71 21.6863 26.982 21.3451 27.4264 21.3451C27.851 21.3451 28.1376 21.6716 28.1376 22.1016C28.1376 22.5317 27.851 22.8582 27.4264 22.8582C26.982 22.8582 26.71 22.517 26.71 22.1016ZM28.6216 20.9201V22.1016V23.2831H28.1082V22.9962C27.9448 23.209 27.6983 23.3425 27.3625 23.3425C26.7004 23.3425 26.1814 22.8236 26.1814 22.1016C26.1814 21.3802 26.7004 20.8607 27.3625 20.8607C27.6983 20.8607 27.9448 20.9943 28.1082 21.207V20.9201H28.6216ZM23.8107 22.1016C23.8107 22.8186 24.3094 23.3425 25.0704 23.3425C25.426 23.3425 25.6629 23.2633 25.9196 23.0607L25.6731 22.6454C25.4803 22.784 25.2779 22.8582 25.0551 22.8582C24.6452 22.8531 24.3439 22.5566 24.3439 22.1016C24.3439 21.6467 24.6452 21.3502 25.0551 21.3451C25.2779 21.3451 25.4803 21.4192 25.6731 21.5578L25.9196 21.1425C25.6629 20.9399 25.426 20.8607 25.0704 20.8607C24.3094 20.8607 23.8107 21.3847 23.8107 22.1016ZM29.8071 21.2071C29.9405 20.9994 30.1333 20.8608 30.4296 20.8608C30.5336 20.8608 30.6818 20.8806 30.7954 20.9253L30.6371 21.4097C30.5285 21.365 30.42 21.3503 30.316 21.3503C29.9801 21.3503 29.8122 21.5676 29.8122 21.9586V23.2832H29.2983V20.9202H29.8071V21.2071ZM16.6677 21.108C16.4206 20.945 16.0802 20.8607 15.7048 20.8607C15.1066 20.8607 14.7216 21.1476 14.7216 21.6173C14.7216 22.0026 15.0083 22.2403 15.5363 22.3144L15.7789 22.3489C16.0604 22.3885 16.1933 22.4626 16.1933 22.5962C16.1933 22.7789 16.0056 22.8831 15.6551 22.8831C15.2994 22.8831 15.0427 22.7693 14.8697 22.6358L14.6278 23.0358C14.9093 23.2435 15.2649 23.3425 15.65 23.3425C16.3318 23.3425 16.727 23.0211 16.727 22.5713C16.727 22.1559 16.4161 21.9387 15.9021 21.8645L15.6601 21.8294C15.438 21.8 15.2599 21.7559 15.2599 21.5974C15.2599 21.4243 15.4278 21.3207 15.7093 21.3207C16.0107 21.3207 16.3024 21.4345 16.4455 21.5233L16.6677 21.108ZM22.6698 21.2071C22.8027 20.9994 22.9955 20.8608 23.2917 20.8608C23.3958 20.8608 23.5439 20.8806 23.6575 20.9253L23.4992 21.4097C23.3907 21.365 23.2821 21.3503 23.1781 21.3503C22.8422 21.3503 22.6743 21.5676 22.6743 21.9586V23.2832L22.161 23.2832V20.9202H22.6698V21.2071ZM18.9104 20.9201H18.0709V20.2032H17.5518V20.9201H17.073V21.3898H17.5518V22.4677C17.5518 23.016 17.7644 23.3425 18.3716 23.3425C18.5944 23.3425 18.8511 23.2735 19.0139 23.1598L18.8658 22.7195C18.7126 22.8084 18.5446 22.8531 18.4112 22.8531C18.1545 22.8531 18.0709 22.6946 18.0709 22.4575V21.3898H18.9104V20.9201ZM11.2343 21.8001V23.2832H10.7153V21.9682C10.7153 21.5676 10.5473 21.3452 10.1968 21.3452C9.85588 21.3452 9.61898 21.563 9.61898 21.9733V23.2832H9.09996V21.9682C9.09996 21.5676 8.92752 21.3452 8.58659 21.3452C8.23549 21.3452 8.0082 21.563 8.0082 21.9733V23.2832H7.48975V20.9202H8.00368V21.2116C8.19648 20.9349 8.44298 20.8608 8.69514 20.8608C9.05586 20.8608 9.31254 21.0192 9.47537 21.2812C9.69305 20.9496 10.004 20.8557 10.3054 20.8608C10.8787 20.8659 11.2343 21.2416 11.2343 21.8001Z" fill="black" fill-opacity="0.88"/>
<path d="M24.2784 16.905H16.4976V2.9104H24.2784V16.905Z" fill="#FF5F00"/>
<path d="M16.9911 9.9081C16.9911 7.06923 18.3192 4.54045 20.3873 2.9108C18.8749 1.71912 16.9662 1.00785 14.8918 1.00785C9.98087 1.00785 6 4.99256 6 9.9081C6 14.8236 9.98087 18.8083 14.8918 18.8083C16.9662 18.8083 18.8749 18.0971 20.3873 16.9054C18.3192 15.2757 16.9911 12.747 16.9911 9.9081Z" fill="#EB001B"/>
<path d="M34.7751 9.9081C34.7751 14.8236 30.7942 18.8083 25.8833 18.8083C23.8089 18.8083 21.9002 18.0971 20.3872 16.9054C22.4559 15.2757 23.784 12.747 23.784 9.9081C23.784 7.06923 22.4559 4.54045 20.3872 2.9108C21.9002 1.71912 23.8089 1.00785 25.8833 1.00785C30.7942 1.00785 34.7751 4.99256 34.7751 9.9081Z" fill="#F79E1B"/>
</svg>
