<svg width="40" height="25" viewBox="0 0 40 25" fill="none" xmlns="http://www.w3.org/2000/svg">
<path fill-rule="evenodd" clip-rule="evenodd" d="M4.47542 7.00958C4.49166 7.00948 4.50946 7.00917 4.52866 7.00884C4.90639 7.00236 5.82949 6.98651 6.23172 8.35583C6.51644 9.32512 6.96998 10.9128 7.59235 13.119H7.84581C8.51324 10.7931 8.97173 9.20539 9.22128 8.35583C9.6228 6.98891 10.5906 7.00231 11.0599 7.00881C11.0897 7.00922 11.1176 7.00961 11.1431 7.00961L14.4382 7.00961V17.3486H11.0798V11.2557H10.8546L8.98245 17.3486H6.4557L4.58358 11.2512H4.35837V17.3486H1V7.00961L4.47542 7.00958ZM19.2608 7.00954V13.107H19.5287L21.8059 8.0931C22.248 7.09532 23.1902 7.00954 23.1902 7.00954H26.4401V17.3486H23.0116V11.2511H22.7436L20.511 16.265C20.069 17.2583 19.0821 17.3486 19.0821 17.3486H15.8322V7.00954H19.2608ZM34.6476 14.2689C36.3103 14.2689 37.8122 13.2899 38.2904 11.9229H27.7918V17.3487H31.0521V14.2689H34.6476Z" fill="#40A548"/>
<path d="M34.5535 7.00781H28C28.156 9.16291 29.9487 11.0078 31.8045 11.0078H37.9398C38.2939 9.21667 37.075 7.00781 34.5535 7.00781Z" fill="#1291D0"/>
</svg>
